# Blender v3.5.1 OBJ File: 'roomDaimond.blend'
# www.blender.org
mtllib pilarsSouth.mtl
o DoorSpilars_pilarsSouth
v 0.000000 -1.500000 -0.250000
v 0.000000 1.500000 -0.250000
v 0.077254 -1.500000 -0.237764
v 0.077254 1.500000 -0.237764
v 0.146946 -1.500000 -0.202254
v 0.146946 1.500000 -0.202254
v 0.202254 -1.500000 -0.146946
v 0.202254 1.500000 -0.146946
v 0.237764 -1.500000 -0.077254
v 0.237764 1.500000 -0.077254
v 0.250000 -1.500000 0.000000
v 0.250000 1.500000 0.000000
v 0.237764 -1.500000 0.077254
v 0.237764 1.500000 0.077254
v 0.202254 -1.500000 0.146946
v 0.202254 1.500000 0.146946
v 0.146946 -1.500000 0.202254
v 0.146946 1.500000 0.202254
v 0.077254 -1.500000 0.237764
v 0.077254 1.500000 0.237764
v 0.000000 -1.500000 0.250000
v 0.000000 1.500000 0.250000
v -0.077254 -1.500000 0.237764
v -0.077254 1.500000 0.237764
v -0.146946 -1.500000 0.202254
v -0.146946 1.500000 0.202254
v -0.202254 -1.500000 0.146946
v -0.202254 1.500000 0.146946
v -0.237764 -1.500000 0.077254
v -0.237764 1.500000 0.077254
v -0.250000 -1.500000 0.000000
v -0.250000 1.500000 0.000000
v -0.237764 -1.500000 -0.077254
v -0.237764 1.500000 -0.077254
v -0.202254 -1.500000 -0.146946
v -0.202254 1.500000 -0.146946
v -0.146946 -1.500000 -0.202254
v -0.146946 1.500000 -0.202254
v -0.077254 -1.500000 -0.237764
v -0.077254 1.500000 -0.237764
v 0.000000 -1.500000 3.750000
v 0.000000 1.500000 3.750000
v 0.077254 -1.500000 3.762236
v 0.077254 1.500000 3.762236
v 0.146946 -1.500000 3.797746
v 0.146946 1.500000 3.797746
v 0.202254 -1.500000 3.853054
v 0.202254 1.500000 3.853054
v 0.237764 -1.500000 3.922746
v 0.237764 1.500000 3.922746
v 0.250000 -1.500000 4.000000
v 0.250000 1.500000 4.000000
v 0.237764 -1.500000 4.077254
v 0.237764 1.500000 4.077254
v 0.202254 -1.500000 4.146946
v 0.202254 1.500000 4.146946
v 0.146946 -1.500000 4.202254
v 0.146946 1.500000 4.202254
v 0.077254 -1.500000 4.237764
v 0.077254 1.500000 4.237764
v 0.000000 -1.500000 4.250000
v 0.000000 1.500000 4.250000
v -0.077254 -1.500000 4.237764
v -0.077254 1.500000 4.237764
v -0.146946 -1.500000 4.202254
v -0.146946 1.500000 4.202254
v -0.202254 -1.500000 4.146946
v -0.202254 1.500000 4.146946
v -0.237764 -1.500000 4.077254
v -0.237764 1.500000 4.077254
v -0.250000 -1.500000 4.000000
v -0.250000 1.500000 4.000000
v -0.237764 -1.500000 3.922746
v -0.237764 1.500000 3.922746
v -0.202254 -1.500000 3.853054
v -0.202254 1.500000 3.853054
v -0.146946 -1.500000 3.797746
v -0.146946 1.500000 3.797746
v -0.077254 -1.500000 3.762236
v -0.077254 1.500000 3.762236
v -0.260113 1.250000 4.250000
v -0.260113 1.250000 2.250000
v -0.260113 1.250000 1.750000
v -0.260113 1.250000 -0.250000
v 0.292678 1.250000 1.750000
v 0.292678 1.250000 -0.250000
vt 1.000000 1.000000
vt 0.950000 0.500000
vt 1.000000 0.500000
vt 0.950000 1.000000
vt 0.900000 0.500000
vt 0.900000 1.000000
vt 0.850000 0.500000
vt 0.850000 1.000000
vt 0.800000 0.500000
vt 0.800000 1.000000
vt 0.750000 0.500000
vt 0.750000 1.000000
vt 0.700000 0.500000
vt 0.700000 1.000000
vt 0.650000 0.500000
vt 0.650000 1.000000
vt 0.600000 0.500000
vt 0.600000 1.000000
vt 0.550000 0.500000
vt 0.550000 1.000000
vt 0.500000 0.500000
vt 0.500000 1.000000
vt 0.450000 0.500000
vt 0.450000 1.000000
vt 0.400000 0.500000
vt 0.400000 1.000000
vt 0.350000 0.500000
vt 0.350000 1.000000
vt 0.300000 0.500000
vt 0.300000 1.000000
vt 0.250000 0.500000
vt 0.250000 1.000000
vt 0.200000 0.500000
vt 0.200000 1.000000
vt 0.150000 0.500000
vt 0.150000 1.000000
vt 0.100000 0.500000
vt 0.250000 0.010000
vt 0.478254 0.175836
vt 0.391068 0.444164
vt 0.100000 1.000000
vt 0.050000 0.500000
vt 0.050000 1.000000
vt -0.000000 0.500000
vt 0.944164 0.108932
vt 0.510000 0.250000
vt 0.675836 0.478254
vt 0.324164 0.478254
vt 0.250000 0.490000
vt 0.175836 0.478254
vt 0.108932 0.444164
vt 0.055836 0.391068
vt 0.021746 0.324164
vt 0.010000 0.250000
vt 0.021746 0.175836
vt 0.055836 0.108932
vt 0.108932 0.055836
vt 0.175836 0.021746
vt 0.324164 0.021746
vt 0.391068 0.055836
vt 0.444164 0.108932
vt 0.490000 0.250000
vt 0.478254 0.324164
vt 0.444164 0.391068
vt -0.000000 1.000000
vt 0.750000 0.490000
vt 0.824164 0.478254
vt 0.891068 0.444164
vt 0.944164 0.391068
vt 0.978254 0.324164
vt 0.990000 0.250000
vt 0.978254 0.175836
vt 0.891068 0.055836
vt 0.824164 0.021746
vt 0.750000 0.010000
vt 0.675836 0.021746
vt 0.608932 0.055836
vt 0.555836 0.108932
vt 0.521746 0.175836
vt 0.521746 0.324164
vt 0.555836 0.391068
vt 0.608932 0.444164
vt 1.000000 1.000000
vt 0.950000 0.500000
vt 1.000000 0.500000
vt 0.950000 1.000000
vt 0.900000 0.500000
vt 0.900000 1.000000
vt 0.850000 0.500000
vt 0.850000 1.000000
vt 0.800000 0.500000
vt 0.800000 1.000000
vt 0.750000 0.500000
vt 0.750000 1.000000
vt 0.700000 0.500000
vt 0.700000 1.000000
vt 0.650000 0.500000
vt 0.650000 1.000000
vt 0.600000 0.500000
vt 0.600000 1.000000
vt 0.550000 0.500000
vt 0.550000 1.000000
vt 0.500000 0.500000
vt 0.500000 1.000000
vt 0.450000 0.500000
vt 0.450000 1.000000
vt 0.400000 0.500000
vt 0.400000 1.000000
vt 0.350000 0.500000
vt 0.350000 1.000000
vt 0.300000 0.500000
vt 0.300000 1.000000
vt 0.250000 0.500000
vt 0.250000 1.000000
vt 0.200000 0.500000
vt 0.200000 1.000000
vt 0.150000 0.500000
vt 0.150000 1.000000
vt 0.100000 0.500000
vt 0.021746 0.175836
vt 0.250000 0.010000
vt 0.478254 0.175836
vt 0.100000 1.000000
vt 0.050000 0.500000
vt 0.050000 1.000000
vt -0.000000 0.500000
vt 0.675836 0.021746
vt 0.510000 0.250000
vt 0.675836 0.478254
vt 0.391068 0.444164
vt 0.324164 0.478254
vt 0.250000 0.490000
vt 0.175836 0.478254
vt 0.108932 0.444164
vt 0.055836 0.391068
vt 0.021746 0.324164
vt 0.010000 0.250000
vt 0.055836 0.108932
vt 0.108932 0.055836
vt 0.175836 0.021746
vt 0.324164 0.021746
vt 0.391068 0.055836
vt 0.444164 0.108932
vt 0.490000 0.250000
vt 0.478254 0.324164
vt 0.444164 0.391068
vt -0.000000 1.000000
vt 0.750000 0.490000
vt 0.824164 0.478254
vt 0.891068 0.444164
vt 0.944164 0.391068
vt 0.978254 0.324164
vt 0.990000 0.250000
vt 0.978254 0.175836
vt 0.944164 0.108932
vt 0.891068 0.055836
vt 0.824164 0.021746
vt 0.750000 0.010000
vt 0.608932 0.055836
vt 0.555836 0.108932
vt 0.521746 0.175836
vt 0.521746 0.324164
vt 0.555836 0.391068
vt 0.608932 0.444164
vn 0.1564 0.0000 -0.9877
vn 0.4540 0.0000 -0.8910
vn 0.7071 0.0000 -0.7071
vn 0.8910 0.0000 -0.4540
vn 0.9877 0.0000 -0.1564
vn 0.9877 0.0000 0.1564
vn 0.8910 0.0000 0.4540
vn 0.7071 0.0000 0.7071
vn 0.4540 0.0000 0.8910
vn 0.1564 0.0000 0.9877
vn -0.1564 0.0000 0.9877
vn -0.4540 0.0000 0.8910
vn -0.7071 0.0000 0.7071
vn -0.8910 0.0000 0.4540
vn -0.9877 0.0000 0.1564
vn -0.9877 0.0000 -0.1564
vn -0.8910 0.0000 -0.4540
vn -0.7071 0.0000 -0.7071
vn 0.0000 1.0000 0.0000
vn -0.4540 0.0000 -0.8910
vn -0.1564 0.0000 -0.9877
vn 0.0000 -1.0000 -0.0000
vn 0.0000 0.6735 -0.7392
vn 0.2284 -0.6735 -0.7030
vn -0.0000 -0.6735 -0.7392
vn 0.2284 0.6735 -0.7030
vn 0.4345 -0.6735 -0.5980
vn 0.4345 0.6735 -0.5980
vn 0.5980 -0.6735 -0.4345
vn 0.5980 0.6735 -0.4345
vn 0.7030 -0.6735 -0.2284
vn 0.7030 0.6735 -0.2284
vn 0.7392 -0.6735 -0.0000
vn 0.7392 0.6735 0.0000
vn 0.7030 -0.6735 0.2284
vn 0.7030 0.6735 0.2284
vn 0.5980 -0.6735 0.4345
vn 0.5980 0.6735 0.4345
vn 0.4345 -0.6735 0.5980
vn 0.4345 0.6735 0.5980
vn 0.2284 -0.6735 0.7030
vn 0.2284 0.6735 0.7030
vn 0.0000 -0.6735 0.7392
vn -0.0000 0.6735 0.7392
vn -0.2284 -0.6735 0.7030
vn -0.2284 0.6735 0.7030
vn -0.4345 -0.6735 0.5980
vn -0.4345 0.6735 0.5980
vn -0.5980 -0.6735 0.4345
vn -0.5980 0.6735 0.4345
vn -0.7030 -0.6735 0.2284
vn -0.7030 0.6735 0.2284
vn -0.7392 -0.6735 0.0000
vn -0.7392 0.6735 -0.0000
vn -0.7030 -0.6735 -0.2284
vn -0.7030 0.6735 -0.2284
vn -0.5980 -0.6735 -0.4345
vn -0.5980 0.6735 -0.4345
vn -0.4345 -0.6735 -0.5980
vn -0.4345 0.6735 -0.5980
vn -0.2284 -0.6735 -0.7030
vn -0.2284 0.6735 -0.7030
usemtl None
s off
f 42/1/1 43/2/1 41/3/1
f 44/4/2 45/5/2 43/2/2
f 46/6/3 47/7/3 45/5/3
f 48/8/4 49/9/4 47/7/4
f 50/10/5 51/11/5 49/9/5
f 52/12/6 53/13/6 51/11/6
f 54/14/7 55/15/7 53/13/7
f 56/16/8 57/17/8 55/15/8
f 58/18/9 59/19/9 57/17/9
f 60/20/10 61/21/10 59/19/10
f 62/22/11 63/23/11 61/21/11
f 64/24/12 65/25/12 63/23/12
f 66/26/13 67/27/13 65/25/13
f 68/28/14 69/29/14 67/27/14
f 70/30/15 71/31/15 69/29/15
f 72/32/16 73/33/16 71/31/16
f 74/34/17 75/35/17 73/33/17
f 76/36/18 77/37/18 75/35/18
f 62/38/19 54/39/19 46/40/19
f 78/41/20 79/42/20 77/37/20
f 80/43/21 41/44/21 79/42/21
f 55/45/22 71/46/22 79/47/22
f 42/1/1 44/4/1 43/2/1
f 44/4/2 46/6/2 45/5/2
f 46/6/3 48/8/3 47/7/3
f 48/8/4 50/10/4 49/9/4
f 50/10/5 52/12/5 51/11/5
f 52/12/6 54/14/6 53/13/6
f 54/14/7 56/16/7 55/15/7
f 56/16/8 58/18/8 57/17/8
f 58/18/9 60/20/9 59/19/9
f 60/20/10 62/22/10 61/21/10
f 62/22/11 64/24/11 63/23/11
f 64/24/12 66/26/12 65/25/12
f 66/26/13 68/28/13 67/27/13
f 68/28/14 70/30/14 69/29/14
f 70/30/15 72/32/15 71/31/15
f 72/32/16 74/34/16 73/33/16
f 74/34/17 76/36/17 75/35/17
f 76/36/18 78/41/18 77/37/18
f 46/40/19 44/48/19 42/49/19
f 42/49/19 80/50/19 78/51/19
f 78/51/19 76/52/19 74/53/19
f 74/53/19 72/54/19 70/55/19
f 70/55/19 68/56/19 66/57/19
f 66/57/19 64/58/19 62/38/19
f 62/38/19 60/59/19 58/60/19
f 58/60/19 56/61/19 54/39/19
f 54/39/19 52/62/19 50/63/19
f 50/63/19 48/64/19 46/40/19
f 46/40/19 42/49/19 78/51/19
f 78/51/19 74/53/19 70/55/19
f 70/55/19 66/57/19 62/38/19
f 62/38/19 58/60/19 54/39/19
f 54/39/19 50/63/19 46/40/19
f 46/40/19 78/51/19 70/55/19
f 70/55/19 62/38/19 46/40/19
f 78/41/20 80/43/20 79/42/20
f 80/43/21 42/65/21 41/44/21
f 79/47/22 41/66/22 43/67/22
f 43/67/22 45/68/22 79/47/22
f 45/68/22 47/69/22 79/47/22
f 47/69/22 49/70/22 51/71/22
f 51/71/22 53/72/22 47/69/22
f 53/72/22 55/45/22 47/69/22
f 55/45/22 57/73/22 59/74/22
f 59/74/22 61/75/22 55/45/22
f 61/75/22 63/76/22 55/45/22
f 63/76/22 65/77/22 71/46/22
f 65/77/22 67/78/22 71/46/22
f 67/78/22 69/79/22 71/46/22
f 71/46/22 73/80/22 75/81/22
f 75/81/22 77/82/22 71/46/22
f 77/82/22 79/47/22 71/46/22
f 79/47/22 47/69/22 55/45/22
f 55/45/22 63/76/22 71/46/22
s 1
f 2/83/23 3/84/24 1/85/25
f 4/86/26 5/87/27 3/84/24
f 6/88/28 7/89/29 5/87/27
f 8/90/30 9/91/31 7/89/29
f 10/92/32 11/93/33 9/91/31
f 12/94/34 13/95/35 11/93/33
f 14/96/36 15/97/37 13/95/35
f 16/98/38 17/99/39 15/97/37
f 18/100/40 19/101/41 17/99/39
f 20/102/42 21/103/43 19/101/41
f 22/104/44 23/105/45 21/103/43
f 24/106/46 25/107/47 23/105/45
f 26/108/48 27/109/49 25/107/47
f 28/110/50 29/111/51 27/109/49
f 30/112/52 31/113/53 29/111/51
f 32/114/54 33/115/55 31/113/53
f 34/116/56 35/117/57 33/115/55
f 36/118/58 37/119/59 35/117/57
f 30/120/52 22/121/44 14/122/36
f 38/123/60 39/124/61 37/119/59
f 40/125/62 1/126/25 39/124/61
f 23/127/45 31/128/53 39/129/61
f 2/83/23 4/86/26 3/84/24
f 4/86/26 6/88/28 5/87/27
f 6/88/28 8/90/30 7/89/29
f 8/90/30 10/92/32 9/91/31
f 10/92/32 12/94/34 11/93/33
f 12/94/34 14/96/36 13/95/35
f 14/96/36 16/98/38 15/97/37
f 16/98/38 18/100/40 17/99/39
f 18/100/40 20/102/42 19/101/41
f 20/102/42 22/104/44 21/103/43
f 22/104/44 24/106/46 23/105/45
f 24/106/46 26/108/48 25/107/47
f 26/108/48 28/110/50 27/109/49
f 28/110/50 30/112/52 29/111/51
f 30/112/52 32/114/54 31/113/53
f 32/114/54 34/116/56 33/115/55
f 34/116/56 36/118/58 35/117/57
f 36/118/58 38/123/60 37/119/59
f 6/130/28 4/131/26 2/132/23
f 2/132/23 40/133/62 38/134/60
f 38/134/60 36/135/58 34/136/56
f 34/136/56 32/137/54 30/120/52
f 30/120/52 28/138/50 22/121/44
f 28/138/50 26/139/48 22/121/44
f 26/139/48 24/140/46 22/121/44
f 22/121/44 20/141/42 18/142/40
f 18/142/40 16/143/38 22/121/44
f 16/143/38 14/122/36 22/121/44
f 14/122/36 12/144/34 10/145/32
f 10/145/32 8/146/30 6/130/28
f 6/130/28 2/132/23 38/134/60
f 38/134/60 34/136/56 30/120/52
f 14/122/36 10/145/32 6/130/28
f 6/130/28 38/134/60 14/122/36
f 38/134/60 30/120/52 14/122/36
f 38/123/60 40/125/62 39/124/61
f 40/125/62 2/147/23 1/126/25
f 39/129/61 1/148/25 3/149/24
f 3/149/24 5/150/27 7/151/29
f 7/151/29 9/152/31 11/153/33
f 11/153/33 13/154/35 15/155/37
f 15/155/37 17/156/39 19/157/41
f 19/157/41 21/158/43 23/127/45
f 23/127/45 25/159/47 31/128/53
f 25/159/47 27/160/49 31/128/53
f 27/160/49 29/161/51 31/128/53
f 31/128/53 33/162/55 35/163/57
f 35/163/57 37/164/59 31/128/53
f 37/164/59 39/129/61 31/128/53
f 39/129/61 3/149/24 15/155/37
f 3/149/24 7/151/29 15/155/37
f 7/151/29 11/153/33 15/155/37
f 15/155/37 19/157/41 23/127/45
f 15/155/37 23/127/45 39/129/61
l 83 84
l 82 81
l 85 86
