# Blender v3.5.1 OBJ File: ''
# www.blender.org
mtllib bullet_MID.mtl
o Sphere
v 0.038832 0.110621 -0.207146
v -0.068589 -0.119192 -0.195989
v 0.011517 0.018077 -0.237137
v 0.014353 -0.186401 -0.145722
v 0.006378 0.200871 -0.129226
v 0.039014 -0.062909 -0.226341
v 0.065780 -0.116576 -0.194742
v 0.113006 0.021213 -0.206982
v 0.087046 -0.182128 -0.123757
v 0.106560 0.154128 -0.145503
v 0.139314 -0.091229 -0.171007
v 0.018528 -0.227700 -0.063474
v 0.153548 0.081509 -0.161559
v -0.016966 0.234576 0.023387
v 0.088771 0.209794 -0.067592
v 0.198270 0.025558 -0.128539
v 0.198025 -0.068766 -0.110301
v 0.177215 0.141208 -0.074628
v 0.229922 0.047116 -0.047568
v 0.110987 -0.206847 -0.032367
v 0.225162 -0.068766 -0.026123
v 0.170344 -0.155394 -0.060368
v 0.194129 0.134047 0.038663
v 0.234259 0.023235 0.027014
v 0.218019 -0.068766 0.062031
v 0.186233 -0.134518 0.068307
v 0.098375 -0.211560 0.042118
v 0.144832 0.155394 0.108097
v 0.161327 0.072249 0.159741
v 0.196849 0.000268 0.137033
v 0.105207 0.210834 0.040154
v 0.043891 -0.231073 0.018180
v 0.107686 -0.023235 0.209788
v 0.117319 -0.112452 0.174153
v 0.109155 -0.169417 0.125616
v 0.026357 0.236741 -0.004302
v 0.084530 0.091033 0.204570
v 0.019206 -0.023235 0.235028
v 0.021137 -0.111613 0.207714
v -0.008017 -0.183762 0.150508
v 0.045198 -0.209197 0.102418
v 0.026243 0.201477 0.125869
v -0.006582 0.146492 0.186449
v -0.018305 0.068766 0.225932
v -0.072197 -0.023235 0.224487
v -0.096188 0.073583 0.203083
v -0.077322 -0.128643 0.186488
v -0.066175 0.209743 0.087845
v -0.093345 0.154106 0.154019
v -0.152609 0.023236 0.179771
v -0.164139 -0.063045 0.160417
v -0.170190 0.151976 0.066400
v -0.184149 0.091033 0.122815
v -0.153418 -0.150671 0.101225
v -0.069237 -0.215382 0.072902
v -0.223493 -0.018077 0.080108
v -0.225162 0.068766 0.026124
v -0.207516 -0.109841 0.039963
v -0.141451 -0.187741 0.032740
v -0.027705 -0.235080 0.016034
v -0.180700 0.153781 -0.006013
v -0.234259 -0.023236 -0.027014
v -0.108348 0.211023 0.017641
v -0.217946 0.073583 -0.054720
v -0.199992 -0.111613 -0.059961
v -0.207611 0.000000 -0.119475
v -0.143875 -0.180141 -0.054005
v -0.050361 0.227586 -0.042010
v -0.119074 0.187009 -0.088355
v -0.154307 0.119090 -0.138576
v -0.164749 0.025559 -0.169383
v -0.156411 -0.091159 -0.157095
v -0.082551 -0.169417 -0.144497
v -0.087389 -0.025559 -0.219537
v -0.052522 0.152276 -0.173142
v -0.067689 0.070489 -0.215969
v -0.074841 -0.216459 -0.069142
vt 0.724140 0.416985
vt 0.697177 0.333812
vt 0.803193 0.341195
vt 0.734417 0.212053
vt 0.649271 0.221986
vt 0.743168 0.527800
vt 0.719711 0.656337
vt 0.671209 0.526813
vt 0.640705 0.375390
vt 0.532930 0.937500
vt 0.600641 0.844960
vt 0.739967 0.816578
vt 0.628986 0.608759
vt 0.591272 0.533801
vt 0.579601 0.406417
vt 0.553516 0.278455
vt 0.561649 0.707153
vt 0.649767 0.722600
vt 0.550365 0.162854
vt 0.705133 0.088303
vt 0.437368 0.062500
vt 0.578125 0.000000
vt 0.531273 0.562381
vt 0.517101 0.406417
vt 0.437764 0.842215
vt 0.442042 0.308201
vt 0.474367 0.685579
vt 0.483032 0.530835
vt 0.454601 0.406417
vt 0.403799 0.499308
vt 0.397952 0.722433
vt 0.377304 0.595265
vt 0.343989 0.343997
vt 0.435963 0.149479
vt 0.363881 0.250000
vt 0.311722 0.157221
vt 0.312998 0.623162
vt 0.326782 0.469165
vt 0.279192 0.818017
vt 0.243312 0.709505
vt 0.255274 0.024794
vt 0.264282 0.469165
vt 0.235851 0.593583
vt 0.236830 0.221920
vt 0.130640 0.143300
vt 0.201782 0.469165
vt 0.197249 0.962469
vt 0.145807 0.846709
vt 0.184593 0.325761
vt 0.121569 0.414693
vt 0.093544 0.281467
vt 0.163729 0.725069
vt 0.094248 0.623162
vt 0.179671 0.600667
vt 0.139282 0.530835
vt 0.053766 0.476849
vt 0.034441 0.208187
vt 0.038107 0.844411
vt 0.007155 0.723284
vt 0.062565 0.718066
vt 0.017101 0.593583
vt 0.000000 0.125000
vt 0.000000 0.469165
vt 0.983032 0.469165
vt 0.953164 0.344178
vt 1.000000 0.334687
vt 0.984519 0.723285
vt 0.960921 0.600667
vt 1.000000 0.593583
vt 0.898033 0.784009
vt 0.883061 0.659895
vt 0.924941 0.501736
vt 0.878569 0.380438
vt 0.872522 0.533801
vt 0.832631 0.250000
vt 0.944968 0.225554
vt 0.879943 0.146557
vt 0.918684 0.037531
vt 0.892574 0.912242
vt 0.810022 0.466199
vt 0.797630 0.594651
vt 0.796875 1.000000
vt 0.797028 0.720989
vt 0.265665 0.344178
vt 1.000000 0.208187
vt 0.027357 0.353268
vt 0.013014 0.937500
vt 0.107642 0.047436
vt 0.989543 0.844411
vn 0.0178 -0.5007 -0.8654
vn 0.2499 -0.6729 -0.6963
vn 0.2713 0.2233 -0.9362
vn 0.4356 -0.1802 -0.8819
vn 0.1149 0.9498 -0.2911
vn 0.3883 -0.3160 -0.8656
vn 0.6707 0.1025 -0.7346
vn 0.7050 -0.5096 -0.4933
vn 0.5403 0.7381 -0.4040
vn 0.5937 -0.6126 -0.5218
vn 0.5155 -0.7835 -0.3470
vn 0.3103 -0.8940 -0.3231
vn 0.7363 -0.1303 -0.6639
vn 0.2565 -0.9592 -0.1193
vn 0.0575 -0.9966 -0.0590
vn 0.9474 -0.0954 -0.3054
vn 0.3426 0.9375 -0.0613
vn 0.8482 -0.5293 -0.0189
vn 0.6523 0.7563 -0.0496
vn 0.9864 -0.1437 0.0799
vn 0.8883 0.2837 0.3613
vn 0.6386 0.7351 0.2274
vn 0.7943 0.4264 0.4328
vn 0.7518 -0.3455 0.5615
vn 0.3878 -0.8421 0.3749
vn 0.5216 0.5225 0.6746
vn 0.6215 0.0603 0.7811
vn 0.1672 0.9516 0.2579
vn 0.2496 0.6459 0.7215
vn 0.0466 -0.9670 0.2504
vn 0.2730 0.0990 0.9569
vn 0.0903 0.4402 0.8934
vn -0.0582 -0.9076 0.4157
vn -0.1144 0.0514 0.9921
vn -0.0496 0.9441 0.3258
vn -0.3167 -0.7646 0.5613
vn -0.5750 -0.5051 0.6436
vn -0.5526 0.4478 0.7029
vn -0.8278 0.0812 0.5551
vn -0.4965 -0.7967 0.3445
vn -0.2560 0.9514 0.1711
vn -0.6388 0.7612 0.1117
vn -0.8587 0.4400 0.2629
vn -0.3678 -0.9296 0.0216
vn -0.9943 0.0418 0.0979
vn -0.9383 -0.3397 -0.0646
vn -0.8930 0.4470 -0.0531
vn -0.7344 0.6064 -0.3049
vn -0.8476 -0.2936 -0.4421
vn -0.7944 0.2682 -0.5449
vn -0.7208 -0.1233 -0.6821
vn -0.5976 -0.6415 -0.4810
vn -0.1088 -0.9820 -0.1544
vn -0.2339 0.8765 -0.4207
vn -0.1546 -0.8451 -0.5118
vn -0.2083 0.0789 -0.9749
vn -0.0887 0.9942 -0.0610
vn -0.0805 -0.8924 -0.4440
vn -0.0418 0.3192 -0.9468
vn -0.1016 -0.1653 -0.9810
vn -0.1301 -0.2663 -0.9551
vn -0.1302 -0.6919 -0.7102
vn 0.0193 0.6574 -0.7533
vn 0.0189 -0.5838 -0.8117
vn 0.2033 0.6807 -0.7038
vn 0.2856 -0.0307 -0.9579
vn 0.2942 0.8082 -0.5102
vn 0.4254 -0.5978 -0.6795
vn 0.4261 0.4493 -0.7852
vn 0.1869 -0.8741 -0.4484
vn 0.4211 0.3479 -0.8376
vn 0.6772 -0.0757 -0.7319
vn 0.6443 0.5372 -0.5443
vn 0.8037 0.3653 -0.4697
vn 0.9353 -0.0695 -0.3471
vn 0.8577 -0.4335 -0.2765
vn 0.6048 0.7901 -0.0999
vn 0.8378 0.3485 -0.4203
vn 0.3381 -0.9411 -0.0023
vn 0.9956 -0.0549 -0.0755
vn 0.8801 0.4636 -0.1021
vn 0.9006 -0.4284 0.0730
vn 0.2879 -0.3032 0.9084
vn 0.9407 0.3351 0.0526
vn 0.9487 -0.0485 0.3125
vn 0.5733 -0.7588 0.3090
vn 0.8683 0.3052 0.3910
vn 0.7850 -0.3294 0.5247
vn 0.6447 -0.5472 0.5338
vn 0.2316 -0.9425 0.2412
vn 0.6509 -0.2199 0.7266
vn 0.3818 0.8126 0.4404
vn 0.3555 0.6596 0.6623
vn 0.5250 0.1447 0.8387
vn 0.2258 -0.7355 0.6388
vn 0.2378 -0.6557 0.7166
vn -0.1291 -0.3148 0.9403
vn 0.1181 0.9584 0.2597
vn 0.1665 0.1640 0.9723
vn -0.0282 -0.9507 0.3087
vn -0.1675 0.7807 0.6020
vn -0.0670 -0.6031 0.7948
vn -0.2438 0.4906 0.8366
vn -0.5078 0.7737 0.3788
vn -0.2704 0.1435 0.9520
vn -0.4455 0.0866 0.8911
vn -0.5333 -0.1167 0.8378
vn -0.4641 -0.2803 0.8402
vn -0.3906 -0.7448 0.5410
vn -0.5985 0.3335 0.7284
vn -0.8101 -0.0231 0.5858
vn -0.7673 -0.6399 -0.0409
vn -0.6016 0.6125 0.5128
vn -0.8029 -0.3980 0.4438
vn -0.8376 -0.3347 0.4317
vn -0.9181 0.1963 0.3442
vn -0.2510 0.9677 0.0247
vn -0.7339 -0.6428 0.2197
vn -0.8557 0.4992 0.1366
vn -0.4027 -0.9150 0.0228
vn -0.9704 -0.2162 0.1079
vn -0.9865 0.1435 -0.0795
vn -0.5913 0.7973 -0.1208
vn -0.4755 -0.8774 -0.0636
vn -0.7833 0.5452 -0.2986
vn -0.9628 0.0892 -0.2551
vn -0.9167 -0.2349 -0.3232
vn -0.4197 0.8934 -0.1600
vn -0.6798 -0.5941 -0.4301
vn -0.8314 0.2967 -0.4699
vn -0.4927 -0.7599 -0.4240
vn -0.5970 -0.1261 -0.7923
vn -0.4783 -0.5603 -0.6762
vn 0.6571 -0.7522 0.0492
vn -0.4185 0.4810 -0.7704
vn -0.5259 0.3185 -0.7886
vn -0.4774 0.1302 -0.8690
vn -0.4650 -0.3026 -0.8320
vn -0.2631 0.8026 -0.5353
vn -0.4251 0.6703 -0.6083
vn 0.0227 0.9599 -0.2793
vn -0.1074 0.4768 -0.8725
usemtl None
s off
f 6/1/1 7/2/1 2/3/1
f 4/4/2 7/2/2 9/5/2
f 3/6/3 1/7/3 8/8/3
f 8/8/4 11/9/4 6/1/4
f 36/10/5 15/11/5 5/12/5
f 6/1/6 11/9/6 7/2/6
f 8/8/7 13/13/7 16/14/7
f 11/9/8 17/15/8 22/16/8
f 15/11/9 18/17/9 10/18/9
f 11/9/10 22/16/10 9/5/10
f 9/5/11 22/16/11 20/19/11
f 9/5/12 20/19/12 12/20/12
f 16/14/13 17/15/13 11/9/13
f 12/20/14 20/19/14 32/21/14
f 60/22/15 12/20/15 32/21/15
f 19/23/16 21/24/16 17/15/16
f 36/10/17 31/25/17 15/11/17
f 22/16/18 21/24/18 26/26/18
f 31/25/19 23/27/19 18/17/19
f 24/28/20 25/29/20 21/24/20
f 24/28/21 23/27/21 30/30/21
f 31/25/22 28/31/22 23/27/22
f 28/31/23 29/32/23 23/27/23
f 30/30/24 34/33/24 26/26/24
f 27/34/25 35/35/25 41/36/25
f 28/31/26 37/37/26 29/32/26
f 30/30/27 29/32/27 33/38/27
f 36/10/28 42/39/28 31/25/28
f 37/37/29 42/39/29 43/40/29
f 41/36/30 60/41/30 32/21/30
f 33/38/31 37/37/31 38/42/31
f 43/40/32 44/43/32 37/37/32
f 40/44/33 55/45/33 41/36/33
f 38/42/34 44/43/34 45/46/34
f 14/47/35 48/48/35 42/39/35
f 40/44/36 47/49/36 55/45/36
f 47/49/37 51/50/37 54/51/37
f 49/52/38 53/53/38 46/54/38
f 50/55/39 53/53/39 56/56/39
f 55/45/40 54/51/40 59/57/40
f 14/47/41 63/58/41 48/48/41
f 63/58/42 61/59/42 52/60/42
f 52/60/43 57/61/43 53/53/43
f 59/57/44 77/62/44 55/45/44
f 56/56/45 57/61/45 62/63/45
f 62/64/46 65/65/46 58/66/46
f 61/67/47 64/68/47 57/69/47
f 61/67/48 69/70/48 70/71/48
f 66/72/49 72/73/49 65/65/49
f 66/72/50 70/71/50 71/74/50
f 71/74/51 72/73/51 66/72/51
f 72/73/52 73/75/52 67/76/52
f 77/77/53 12/20/53 60/78/53
f 69/70/54 68/79/54 5/12/54
f 77/77/55 73/75/55 4/4/55
f 74/80/56 76/81/56 3/6/56
f 68/79/57 14/82/57 36/10/57
f 77/77/58 4/4/58 12/20/58
f 76/81/59 1/7/59 3/6/59
f 3/6/60 6/1/60 74/80/60
f 74/80/61 6/1/61 2/3/61
f 2/3/62 4/4/62 73/75/62
f 75/83/63 5/12/63 1/7/63
f 2/3/64 7/2/64 4/4/64
f 5/12/65 10/18/65 1/7/65
f 3/6/66 8/8/66 6/1/66
f 10/18/67 5/12/67 15/11/67
f 7/2/68 11/9/68 9/5/68
f 1/7/69 10/18/69 13/13/69
f 12/20/70 4/4/70 9/5/70
f 8/8/71 1/7/71 13/13/71
f 8/8/72 16/14/72 11/9/72
f 10/18/73 18/17/73 13/13/73
f 16/14/74 13/13/74 18/17/74
f 16/14/75 19/23/75 17/15/75
f 22/16/76 17/15/76 21/24/76
f 15/11/77 31/25/77 18/17/77
f 16/14/78 18/17/78 19/23/78
f 32/21/79 20/19/79 27/34/79
f 19/23/80 24/28/80 21/24/80
f 18/17/81 23/27/81 19/23/81
f 26/26/82 21/24/82 25/29/82
f 39/84/83 34/33/83 33/38/83 38/42/83
f 24/28/84 19/23/84 23/27/84
f 24/28/85 30/30/85 25/29/85
f 27/34/86 26/26/86 35/35/86
f 30/30/87 23/27/87 29/32/87
f 25/29/88 30/30/88 26/26/88
f 26/26/89 34/33/89 35/35/89
f 27/34/90 41/36/90 32/21/90
f 30/30/91 33/38/91 34/33/91
f 31/25/92 42/39/92 28/31/92
f 37/37/93 28/31/93 42/39/93
f 33/38/94 29/32/94 37/37/94
f 41/36/95 35/35/95 40/44/95
f 40/44/96 35/35/96 34/33/96 39/84/96
f 47/49/97 39/84/97 38/42/97 45/46/97
f 36/10/98 14/47/98 42/39/98
f 38/42/99 37/37/99 44/43/99
f 41/36/100 55/45/100 60/41/100
f 49/52/101 43/40/101 42/39/101 48/48/101
f 39/84/102 47/49/102 40/44/102
f 46/54/103 44/43/103 43/40/103 49/52/103
f 52/60/104 49/52/104 48/48/104 63/58/104
f 45/46/105 44/43/105 46/54/105
f 45/46/106 46/54/106 50/55/106
f 45/46/107 50/55/107 51/50/107
f 45/46/108 51/50/108 47/49/108
f 55/45/109 47/49/109 54/51/109
f 50/55/110 46/54/110 53/53/110
f 50/55/111 56/56/111 51/50/111
f 67/76/112 59/85/112 58/66/112 65/65/112
f 53/53/113 49/52/113 52/60/113
f 54/51/114 51/50/114 58/86/114
f 51/50/115 56/56/115 58/86/115
f 56/56/116 53/53/116 57/61/116
f 14/47/117 68/87/117 63/58/117
f 54/51/118 58/86/118 59/57/118
f 52/60/119 61/59/119 57/61/119
f 60/88/120 55/45/120 77/62/120
f 56/56/121 62/63/121 58/86/121
f 62/64/122 57/69/122 64/68/122
f 63/89/123 69/70/123 61/67/123
f 59/85/124 67/76/124 77/77/124
f 61/67/125 70/71/125 64/68/125
f 62/64/126 64/68/126 66/72/126
f 62/64/127 66/72/127 65/65/127
f 63/89/128 68/79/128 69/70/128
f 65/65/129 72/73/129 67/76/129
f 66/72/130 64/68/130 70/71/130
f 77/77/131 67/76/131 73/75/131
f 71/74/132 74/80/132 72/73/132
f 72/73/133 2/3/133 73/75/133
f 26/26/134 27/34/134 20/19/134 22/16/134
f 70/71/135 75/83/135 76/81/135
f 71/74/136 70/71/136 76/81/136
f 74/80/137 71/74/137 76/81/137
f 72/73/138 74/80/138 2/3/138
f 69/70/139 5/12/139 75/83/139
f 70/71/140 69/70/140 75/83/140
f 68/79/141 36/10/141 5/12/141
f 76/81/142 75/83/142 1/7/142
