# Blender v3.5.1 OBJ File: 'RoomTemplate.blend'
# www.blender.org
mtllib Cylinder.mtl
o DoorN_Cylinder
v 0.000000 0.250000 -1.500000
v 0.000000 0.250000 1.500000
v 0.077254 0.237764 -1.500000
v 0.077254 0.237764 1.500000
v 0.146946 0.202254 -1.500000
v 0.146946 0.202254 1.500000
v 0.202254 0.146946 -1.500000
v 0.202254 0.146946 1.500000
v 0.237764 0.077254 -1.500000
v 0.237764 0.077254 1.500000
v 0.250000 0.000000 -1.500000
v 0.250000 0.000000 1.500000
v 0.237764 -0.077254 -1.500000
v 0.237764 -0.077254 1.500000
v 0.202254 -0.146946 -1.500000
v 0.202254 -0.146946 1.500000
v 0.146946 -0.202254 -1.500000
v 0.146946 -0.202254 1.500000
v 0.077254 -0.237764 -1.500000
v 0.077254 -0.237764 1.500000
v 0.000000 -0.250000 -1.500000
v 0.000000 -0.250000 1.500000
v -0.077254 -0.237764 -1.500000
v -0.077254 -0.237764 1.500000
v -0.146946 -0.202254 -1.500000
v -0.146946 -0.202254 1.500000
v -0.202254 -0.146946 -1.500000
v -0.202254 -0.146946 1.500000
v -0.237764 -0.077254 -1.500000
v -0.237764 -0.077254 1.500000
v -0.250000 0.000000 -1.500000
v -0.250000 0.000000 1.500000
v -0.237764 0.077254 -1.500000
v -0.237764 0.077254 1.500000
v -0.202254 0.146946 -1.500000
v -0.202254 0.146946 1.500000
v -0.146946 0.202254 -1.500000
v -0.146946 0.202254 1.500000
v -0.077254 0.237764 -1.500000
v -0.077254 0.237764 1.500000
v -0.250000 -2.250000 1.250000
v -0.250000 -2.250000 1.750000
v -0.250000 -1.750000 1.250000
v -0.250000 -1.750000 1.750000
v 0.250000 -2.250000 1.250000
v 0.250000 -2.250000 1.750000
v 0.250000 -1.750000 1.250000
v 0.250000 -1.750000 1.750000
v -0.250000 0.250000 1.750000
v -0.250000 0.250000 1.250000
v 0.250000 0.250000 1.250000
v 0.250000 0.250000 1.750000
v -0.250000 -4.250000 1.250000
v -0.250000 -4.250000 1.750000
v 0.250000 -4.250000 1.750000
v 0.250000 -4.250000 1.250000
v -0.250000 -2.250000 1.250000
v -0.250000 -1.750000 1.250000
v 0.000000 -3.750000 -1.500000
v 0.000000 -3.750000 1.500000
v 0.077254 -3.762236 -1.500000
v 0.077254 -3.762236 1.500000
v 0.146946 -3.797746 -1.500000
v 0.146946 -3.797746 1.500000
v 0.202254 -3.853054 -1.500000
v 0.202254 -3.853054 1.500000
v 0.237764 -3.922746 -1.500000
v 0.237764 -3.922746 1.500000
v 0.250000 -4.000000 -1.500000
v 0.250000 -4.000000 1.500000
v 0.237764 -4.077254 -1.500000
v 0.237764 -4.077254 1.500000
v 0.202254 -4.146946 -1.500000
v 0.202254 -4.146946 1.500000
v 0.146946 -4.202254 -1.500000
v 0.146946 -4.202254 1.500000
v 0.077254 -4.237764 -1.500000
v 0.077254 -4.237764 1.500000
v 0.000000 -4.250000 -1.500000
v 0.000000 -4.250000 1.500000
v -0.077254 -4.237764 -1.500000
v -0.077254 -4.237764 1.500000
v -0.146946 -4.202254 -1.500000
v -0.146946 -4.202254 1.500000
v -0.202254 -4.146946 -1.500000
v -0.202254 -4.146946 1.500000
v -0.237764 -4.077254 -1.500000
v -0.237764 -4.077254 1.500000
v -0.250000 -4.000000 -1.500000
v -0.250000 -4.000000 1.500000
v -0.237764 -3.922746 -1.500000
v -0.237764 -3.922746 1.500000
v -0.202254 -3.853054 -1.500000
v -0.202254 -3.853054 1.500000
v -0.146946 -3.797746 -1.500000
v -0.146946 -3.797746 1.500000
v -0.077254 -3.762236 -1.500000
v -0.077254 -3.762236 1.500000
v -0.250000 -2.250000 1.750000
v -0.250000 -1.750000 1.750000
v -0.250000 0.250000 1.750000
v -0.250000 0.250000 1.250000
v -0.250000 -4.250000 1.250000
v -0.250000 -4.250000 1.750000
v -0.260113 -4.250000 1.750000
v -0.260113 -2.250000 1.750000
v -0.260113 -2.250000 1.250000
v -0.260113 -4.250000 1.250000
v -0.260113 0.250000 1.750000
v -0.260113 -1.750000 1.750000
v -0.260113 -1.750000 1.250000
v -0.260113 0.250000 1.250000
v -0.260113 0.250000 1.750000
v -0.260113 -1.750000 1.750000
v -0.260113 -4.250000 1.250000
v -0.260113 -4.250000 1.750000
v -0.260113 -2.250000 1.250000
v -0.260113 -2.250000 1.750000
v -0.260113 -1.750000 1.250000
v -0.260113 0.250000 1.250000
v -0.277919 -1.750000 1.250000
v -0.277919 0.250000 1.250000
v -0.277919 0.250000 1.750000
v -0.277919 -1.750000 1.750000
v -0.277919 -2.250000 1.250000
v -0.277919 -2.250000 1.750000
v -0.277919 -4.250000 1.750000
v -0.277919 -4.250000 1.250000
v -0.277919 -1.750000 1.250000
v -0.277919 -2.250000 1.250000
v -0.277919 -2.250000 1.750000
v -0.277919 -1.750000 1.750000
v -0.250000 -4.270163 1.250000
v -0.250000 -4.270163 1.750000
v 0.250000 -4.270163 1.750000
v 0.250000 -4.270163 1.250000
v -0.250000 0.266746 1.750000
v -0.250000 0.266746 1.250000
v 0.250000 0.266746 1.250000
v 0.250000 0.266746 1.750000
vt 0.125000 0.500000
vt 0.125000 0.500000
vt 0.125000 0.500000
vt 0.375000 0.500000
vt 0.625000 0.500000
vt 0.625000 0.500000
vt 0.375000 0.750000
vt 0.375000 1.000000
vt 0.625000 1.000000
vt 0.375000 1.000000
vt 0.125000 0.750000
vt 0.125000 0.500000
vt 0.875000 0.500000
vt 0.625000 0.750000
vt 0.875000 0.500000
vt 0.875000 0.500000
vt 0.375000 0.500000
vt 0.125000 0.750000
vt 0.375000 0.750000
vt 0.125000 0.750000
vt 0.125000 0.750000
vt 0.875000 0.750000
vt 0.625000 0.750000
vt 0.625000 1.000000
vt 0.625000 1.000000
vt 0.125000 0.750000
vt 0.125000 0.750000
vt 0.125000 0.750000
vt 1.000000 1.000000
vt 0.950000 0.500000
vt 1.000000 0.500000
vt 0.875000 0.750000
vt 0.625000 0.750000
vt 0.125000 0.750000
vt 0.125000 0.750000
vt 0.950000 1.000000
vt 0.900000 0.500000
vt 0.375000 0.250000
vt 0.625000 0.250000
vt 0.625000 0.250000
vt 0.900000 1.000000
vt 0.850000 0.500000
vt 0.875000 0.750000
vt 0.875000 0.750000
vt 0.875000 0.750000
vt 0.125000 0.500000
vt 0.850000 1.000000
vt 0.800000 0.500000
vt 0.875000 0.500000
vt 0.875000 0.500000
vt 0.875000 0.500000
vt 0.375000 0.250000
vt 0.625000 0.250000
vt 0.625000 0.250000
vt 0.800000 1.000000
vt 0.750000 0.500000
vt 0.625000 1.000000
vt 0.375000 1.000000
vt 0.375000 1.000000
vt 0.125000 0.750000
vt 0.750000 1.000000
vt 0.700000 0.500000
vt 0.125000 0.500000
vt 0.125000 0.500000
vt 0.700000 1.000000
vt 0.650000 0.500000
vt 0.125000 0.500000
vt 0.125000 0.500000
vt 0.125000 0.500000
vt 0.875000 0.750000
vt 0.875000 0.750000
vt 0.875000 0.750000
vt 0.650000 1.000000
vt 0.600000 0.500000
vt 0.875000 0.750000
vt 0.875000 0.750000
vt 0.875000 0.500000
vt 0.875000 0.500000
vt 0.600000 1.000000
vt 0.550000 0.500000
vt 0.375000 0.250000
vt 0.625000 0.250000
vt 0.375000 0.250000
vt 0.550000 1.000000
vt 0.500000 0.500000
vt 0.625000 0.000000
vt 0.375000 0.000000
vt 0.625000 0.000000
vt 0.500000 1.000000
vt 0.450000 0.500000
vt 0.375000 0.000000
vt 0.875000 0.500000
vt 0.450000 1.000000
vt 0.400000 0.500000
vt 0.625000 0.000000
vt 0.400000 1.000000
vt 0.350000 0.500000
vt 0.375000 0.250000
vt 0.875000 0.500000
vt 0.350000 1.000000
vt 0.300000 0.500000
vt 0.875000 0.750000
vt 0.625000 0.250000
vt 0.300000 1.000000
vt 0.250000 0.500000
vt 0.250000 1.000000
vt 0.200000 0.500000
vt 0.200000 1.000000
vt 0.150000 0.500000
vt 0.375000 1.000000
vt 0.150000 1.000000
vt 0.100000 0.500000
vt 0.250000 0.010000
vt 0.478254 0.175836
vt 0.391068 0.444164
vt 0.100000 1.000000
vt 0.050000 0.500000
vt 0.375000 1.000000
vt 0.375000 0.750000
vt 0.125000 0.500000
vt 0.050000 1.000000
vt -0.000000 0.500000
vt 0.944164 0.108932
vt 0.510000 0.250000
vt 0.675836 0.478254
vt 0.625000 0.250000
vt 0.375000 0.500000
vt 0.375000 0.250000
vt 0.375000 0.250000
vt 0.625000 0.500000
vt 0.125000 0.750000
vt 0.875000 0.750000
vt 0.125000 0.750000
vt 0.375000 0.250000
vt 0.625000 1.000000
vt 0.875000 0.500000
vt 0.625000 0.250000
vt 0.875000 0.500000
vt 0.375000 0.000000
vt 0.625000 1.000000
vt 0.324164 0.478254
vt 0.250000 0.490000
vt 0.175836 0.478254
vt 0.108932 0.444164
vt 0.055836 0.391068
vt 0.021746 0.324164
vt 0.010000 0.250000
vt 0.021746 0.175836
vt 0.055836 0.108932
vt 0.108932 0.055836
vt 0.175836 0.021746
vt 0.324164 0.021746
vt 0.391068 0.055836
vt 0.444164 0.108932
vt 0.490000 0.250000
vt 0.478254 0.324164
vt 0.444164 0.391068
vt -0.000000 1.000000
vt 0.750000 0.490000
vt 0.824164 0.478254
vt 0.891068 0.444164
vt 0.944164 0.391068
vt 0.978254 0.324164
vt 0.990000 0.250000
vt 0.978254 0.175836
vt 0.891068 0.055836
vt 0.824164 0.021746
vt 0.750000 0.010000
vt 0.675836 0.021746
vt 0.608932 0.055836
vt 0.555836 0.108932
vt 0.521746 0.175836
vt 0.521746 0.324164
vt 0.555836 0.391068
vt 0.608932 0.444164
vt 0.125000 0.500000
vt 1.000000 1.000000
vt 0.950000 0.500000
vt 1.000000 0.500000
vt 0.950000 1.000000
vt 0.900000 0.500000
vt 0.900000 1.000000
vt 0.850000 0.500000
vt 0.850000 1.000000
vt 0.800000 0.500000
vt 0.800000 1.000000
vt 0.750000 0.500000
vt 0.750000 1.000000
vt 0.700000 0.500000
vt 0.700000 1.000000
vt 0.650000 0.500000
vt 0.650000 1.000000
vt 0.600000 0.500000
vt 0.600000 1.000000
vt 0.550000 0.500000
vt 0.550000 1.000000
vt 0.500000 0.500000
vt 0.500000 1.000000
vt 0.450000 0.500000
vt 0.450000 1.000000
vt 0.400000 0.500000
vt 0.400000 1.000000
vt 0.350000 0.500000
vt 0.350000 1.000000
vt 0.300000 0.500000
vt 0.300000 1.000000
vt 0.250000 0.500000
vt 0.250000 1.000000
vt 0.200000 0.500000
vt 0.200000 1.000000
vt 0.150000 0.500000
vt 0.150000 1.000000
vt 0.100000 0.500000
vt 0.021746 0.175836
vt 0.250000 0.010000
vt 0.478254 0.175836
vt 0.100000 1.000000
vt 0.050000 0.500000
vt 0.050000 1.000000
vt -0.000000 0.500000
vt 0.675836 0.021746
vt 0.510000 0.250000
vt 0.675836 0.478254
vt 0.391068 0.444164
vt 0.324164 0.478254
vt 0.250000 0.490000
vt 0.175836 0.478254
vt 0.108932 0.444164
vt 0.055836 0.391068
vt 0.021746 0.324164
vt 0.010000 0.250000
vt 0.055836 0.108932
vt 0.108932 0.055836
vt 0.175836 0.021746
vt 0.324164 0.021746
vt 0.391068 0.055836
vt 0.444164 0.108932
vt 0.490000 0.250000
vt 0.478254 0.324164
vt 0.444164 0.391068
vt -0.000000 1.000000
vt 0.750000 0.490000
vt 0.824164 0.478254
vt 0.891068 0.444164
vt 0.944164 0.391068
vt 0.978254 0.324164
vt 0.990000 0.250000
vt 0.978254 0.175836
vt 0.944164 0.108932
vt 0.891068 0.055836
vt 0.824164 0.021746
vt 0.750000 0.010000
vt 0.608932 0.055836
vt 0.555836 0.108932
vt 0.521746 0.175836
vt 0.521746 0.324164
vt 0.555836 0.391068
vt 0.608932 0.444164
vn 0.0000 0.0000 1.0000
vn 1.0000 0.0000 0.0000
vn 0.0000 0.0000 -1.0000
vn -1.0000 0.0000 0.0000
vn 0.1564 0.9877 0.0000
vn 0.4540 0.8910 0.0000
vn 0.0000 1.0000 0.0000
vn 0.7071 0.7071 0.0000
vn 0.8910 0.4540 0.0000
vn 0.9877 0.1564 0.0000
vn 0.0000 -1.0000 0.0000
vn 0.9877 -0.1564 0.0000
vn 0.8910 -0.4540 0.0000
vn 0.7071 -0.7071 0.0000
vn 0.4540 -0.8910 0.0000
vn 0.1564 -0.9877 0.0000
vn -0.1564 -0.9877 0.0000
vn -0.4540 -0.8910 0.0000
vn -0.7071 -0.7071 0.0000
vn -0.8910 -0.4540 0.0000
vn -0.9877 -0.1564 0.0000
vn -0.9877 0.1564 0.0000
vn -0.8910 0.4540 0.0000
vn -0.7071 0.7071 0.0000
vn -0.4540 0.8910 0.0000
vn -0.1564 0.9877 0.0000
vn 0.0000 0.7392 0.6735
vn 0.2284 0.7030 -0.6735
vn -0.0000 0.7392 -0.6735
vn 0.2284 0.7030 0.6735
vn 0.4345 0.5980 -0.6735
vn 0.4345 0.5980 0.6735
vn 0.5980 0.4345 -0.6735
vn 0.5980 0.4345 0.6735
vn 0.7030 0.2284 -0.6735
vn 0.7030 0.2284 0.6735
vn 0.7392 0.0000 -0.6735
vn 0.7392 -0.0000 0.6735
vn 0.7030 -0.2284 -0.6735
vn 0.7030 -0.2284 0.6735
vn 0.5980 -0.4345 -0.6735
vn 0.5980 -0.4345 0.6735
vn 0.4345 -0.5980 -0.6735
vn 0.4345 -0.5980 0.6735
vn 0.2284 -0.7030 -0.6735
vn 0.2284 -0.7030 0.6735
vn 0.0000 -0.7392 -0.6735
vn -0.0000 -0.7392 0.6735
vn -0.2284 -0.7030 -0.6735
vn -0.2284 -0.7030 0.6735
vn -0.4345 -0.5980 -0.6735
vn -0.4345 -0.5980 0.6735
vn -0.5980 -0.4345 -0.6735
vn -0.5980 -0.4345 0.6735
vn -0.7030 -0.2284 -0.6735
vn -0.7030 -0.2284 0.6735
vn -0.7392 -0.0000 -0.6735
vn -0.7392 0.0000 0.6735
vn -0.7030 0.2284 -0.6735
vn -0.7030 0.2284 0.6735
vn -0.5980 0.4345 -0.6735
vn -0.5980 0.4345 0.6735
vn -0.4345 0.5980 -0.6735
vn -0.4345 0.5980 0.6735
vn -0.2284 0.7030 -0.6735
vn -0.2284 0.7030 0.6735
usemtl None
s off
f 50/1/1 58/2/1 102/3/1
f 47/4/2 52/5/2 48/6/2
f 48/6/2 45/7/2 47/4/2
f 53/8/1 104/9/1 103/10/1
f 47/4/3 41/11/3 43/12/3
f 44/13/1 46/14/1 48/6/1
f 52/5/1 137/15/1 49/16/1
f 43/12/3 51/17/3 47/4/3
f 48/6/1 49/16/1 44/13/1
f 43/12/1 57/18/1 58/2/1
f 56/19/3 133/20/3 53/21/3
f 45/7/3 53/21/3 41/11/3
f 42/22/1 55/23/1 46/14/1
f 46/14/2 56/19/2 45/7/2
f 53/8/4 134/24/4 54/25/4
f 107/26/1 115/27/1 117/28/1
f 60/29/5 61/30/5 59/31/5
f 54/32/1 135/33/1 55/23/1
f 107/26/1 125/34/1 130/35/1
f 62/36/6 63/37/6 61/30/6
f 120/38/7 123/39/7 113/40/7
f 115/27/3 125/34/3 117/28/3
f 64/41/8 65/42/8 63/37/8
f 118/43/1 127/44/1 116/45/1
f 57/18/3 111/46/3 58/2/3
f 66/47/9 67/48/9 65/42/9
f 110/49/1 124/50/1 132/51/1
f 102/52/7 109/53/7 101/54/7
f 68/55/10 69/56/10 67/48/10
f 116/57/11 128/58/11 115/59/11
f 103/60/3 107/26/3 57/18/3
f 70/61/12 71/62/12 69/56/12
f 107/26/3 129/63/3 111/46/3
f 58/2/3 112/64/3 102/3/3
f 72/65/13 73/66/13 71/62/13
f 119/67/3 122/68/3 120/69/3
f 99/70/1 105/71/1 104/72/1
f 74/73/14 75/74/14 73/66/14
f 110/49/1 131/75/1 106/76/1
f 113/77/1 124/50/1 114/78/1
f 76/79/15 77/80/15 75/74/15
f 129/81/1 124/82/1 121/83/1
f 110/49/1 113/77/1 114/78/1
f 78/84/16 79/85/16 77/80/16
f 131/86/1 125/87/1 126/88/1
f 112/64/1 119/67/1 120/69/1
f 80/89/17 81/90/17 79/85/17
f 131/86/4 129/81/4 130/91/4
f 42/22/1 100/92/1 99/70/1
f 82/93/18 83/94/18 81/90/18
f 125/87/4 127/95/4 126/88/4
f 41/11/1 103/60/1 57/18/1
f 84/96/19 85/97/19 83/94/19
f 124/82/4 122/98/4 121/83/4
f 44/13/1 101/99/1 100/92/1
f 86/100/20 87/101/20 85/97/20
f 118/43/1 131/75/1 126/102/1
f 49/103/1 102/52/1 101/54/1
f 88/104/21 89/105/21 87/101/21
f 109/53/1 120/38/1 113/40/1
f 54/32/1 99/70/1 104/72/1
f 90/106/22 91/107/22 89/105/22
f 105/71/1 118/43/1 116/45/1
f 100/92/1 106/76/1 99/70/1
f 92/108/23 93/109/23 91/107/23
f 108/110/1 116/57/1 115/59/1
f 101/99/1 110/49/1 100/92/1
f 94/111/24 95/112/24 93/109/24
f 80/113/1 72/114/1 64/115/1
f 104/9/11 108/110/11 103/10/11
f 96/116/25 97/117/25 95/112/25
f 135/33/11 133/118/11 136/119/11
f 119/67/1 129/63/1 121/120/1
f 98/121/26 59/122/26 97/117/26
f 73/123/3 89/124/3 97/125/3
f 55/23/2 136/119/2 56/19/2
f 137/126/7 139/127/7 138/128/7
f 49/103/4 138/128/4 50/129/4
f 51/17/2 140/130/2 52/5/2
f 50/1/3 139/127/3 51/17/3
f 50/1/1 43/12/1 58/2/1
f 47/4/2 51/17/2 52/5/2
f 48/6/2 46/14/2 45/7/2
f 53/8/1 54/25/1 104/9/1
f 47/4/3 45/7/3 41/11/3
f 44/13/1 42/22/1 46/14/1
f 52/5/1 140/130/1 137/15/1
f 43/12/3 50/1/3 51/17/3
f 48/6/1 52/5/1 49/16/1
f 43/12/1 41/11/1 57/18/1
f 56/19/3 136/119/3 133/20/3
f 45/7/3 56/19/3 53/21/3
f 42/22/1 54/32/1 55/23/1
f 46/14/2 55/23/2 56/19/2
f 53/8/4 133/118/4 134/24/4
f 107/26/1 108/131/1 115/27/1
f 60/29/5 62/36/5 61/30/5
f 54/32/1 134/132/1 135/33/1
f 107/26/1 117/28/1 125/34/1
f 62/36/6 64/41/6 63/37/6
f 120/38/7 122/98/7 123/39/7
f 115/27/3 128/133/3 125/34/3
f 64/41/8 66/47/8 65/42/8
f 118/43/1 126/102/1 127/44/1
f 57/18/3 107/26/3 111/46/3
f 66/47/9 68/55/9 67/48/9
f 110/49/1 114/78/1 124/50/1
f 102/52/7 112/134/7 109/53/7
f 68/55/10 70/61/10 69/56/10
f 116/57/11 127/135/11 128/58/11
f 103/60/3 108/131/3 107/26/3
f 70/61/12 72/65/12 71/62/12
f 107/26/3 130/35/3 129/63/3
f 58/2/3 111/46/3 112/64/3
f 72/65/13 74/73/13 73/66/13
f 119/67/3 121/120/3 122/68/3
f 99/70/1 106/76/1 105/71/1
f 74/73/14 76/79/14 75/74/14
f 110/49/1 132/51/1 131/75/1
f 113/77/1 123/136/1 124/50/1
f 76/79/15 78/84/15 77/80/15
f 129/81/1 132/137/1 124/82/1
f 110/49/1 109/138/1 113/77/1
f 78/84/16 80/89/16 79/85/16
f 131/86/1 130/91/1 125/87/1
f 112/64/1 111/46/1 119/67/1
f 80/89/17 82/93/17 81/90/17
f 131/86/4 132/137/4 129/81/4
f 42/22/1 44/13/1 100/92/1
f 82/93/18 84/96/18 83/94/18
f 125/87/4 128/139/4 127/95/4
f 41/11/1 53/21/1 103/60/1
f 84/96/19 86/100/19 85/97/19
f 124/82/4 123/39/4 122/98/4
f 44/13/1 49/16/1 101/99/1
f 86/100/20 88/104/20 87/101/20
f 118/43/1 106/76/1 131/75/1
f 49/103/1 50/129/1 102/52/1
f 88/104/21 90/106/21 89/105/21
f 109/53/1 112/134/1 120/38/1
f 54/32/1 42/22/1 99/70/1
f 90/106/22 92/108/22 91/107/22
f 105/71/1 106/76/1 118/43/1
f 100/92/1 110/49/1 106/76/1
f 92/108/23 94/111/23 93/109/23
f 108/110/1 105/140/1 116/57/1
f 101/99/1 109/138/1 110/49/1
f 94/111/24 96/116/24 95/112/24
f 64/115/1 62/141/1 60/142/1
f 60/142/1 98/143/1 96/144/1
f 96/144/1 94/145/1 92/146/1
f 92/146/1 90/147/1 88/148/1
f 88/148/1 86/149/1 84/150/1
f 84/150/1 82/151/1 80/113/1
f 80/113/1 78/152/1 76/153/1
f 76/153/1 74/154/1 72/114/1
f 72/114/1 70/155/1 68/156/1
f 68/156/1 66/157/1 64/115/1
f 64/115/1 60/142/1 96/144/1
f 96/144/1 92/146/1 88/148/1
f 88/148/1 84/150/1 80/113/1
f 80/113/1 76/153/1 72/114/1
f 72/114/1 68/156/1 64/115/1
f 64/115/1 96/144/1 88/148/1
f 88/148/1 80/113/1 64/115/1
f 104/9/11 105/140/11 108/110/11
f 96/116/25 98/121/25 97/117/25
f 135/33/11 134/24/11 133/118/11
f 119/67/1 111/46/1 129/63/1
f 98/121/26 60/158/26 59/122/26
f 97/125/3 59/159/3 61/160/3
f 61/160/3 63/161/3 97/125/3
f 63/161/3 65/162/3 97/125/3
f 65/162/3 67/163/3 69/164/3
f 69/164/3 71/165/3 65/162/3
f 71/165/3 73/123/3 65/162/3
f 73/123/3 75/166/3 77/167/3
f 77/167/3 79/168/3 73/123/3
f 79/168/3 81/169/3 73/123/3
f 81/169/3 83/170/3 89/124/3
f 83/170/3 85/171/3 89/124/3
f 85/171/3 87/172/3 89/124/3
f 89/124/3 91/173/3 93/174/3
f 93/174/3 95/175/3 89/124/3
f 95/175/3 97/125/3 89/124/3
f 97/125/3 65/162/3 73/123/3
f 73/123/3 81/169/3 89/124/3
f 55/23/2 135/33/2 136/119/2
f 137/126/7 140/130/7 139/127/7
f 49/103/4 137/126/4 138/128/4
f 51/17/2 139/127/2 140/130/2
f 50/1/3 138/176/3 139/127/3
s 1
f 2/177/27 3/178/28 1/179/29
f 4/180/30 5/181/31 3/178/28
f 6/182/32 7/183/33 5/181/31
f 8/184/34 9/185/35 7/183/33
f 10/186/36 11/187/37 9/185/35
f 12/188/38 13/189/39 11/187/37
f 14/190/40 15/191/41 13/189/39
f 16/192/42 17/193/43 15/191/41
f 18/194/44 19/195/45 17/193/43
f 20/196/46 21/197/47 19/195/45
f 22/198/48 23/199/49 21/197/47
f 24/200/50 25/201/51 23/199/49
f 26/202/52 27/203/53 25/201/51
f 28/204/54 29/205/55 27/203/53
f 30/206/56 31/207/57 29/205/55
f 32/208/58 33/209/59 31/207/57
f 34/210/60 35/211/61 33/209/59
f 36/212/62 37/213/63 35/211/61
f 30/214/56 22/215/48 14/216/40
f 38/217/64 39/218/65 37/213/63
f 40/219/66 1/220/29 39/218/65
f 23/221/49 31/222/57 39/223/65
f 2/177/27 4/180/30 3/178/28
f 4/180/30 6/182/32 5/181/31
f 6/182/32 8/184/34 7/183/33
f 8/184/34 10/186/36 9/185/35
f 10/186/36 12/188/38 11/187/37
f 12/188/38 14/190/40 13/189/39
f 14/190/40 16/192/42 15/191/41
f 16/192/42 18/194/44 17/193/43
f 18/194/44 20/196/46 19/195/45
f 20/196/46 22/198/48 21/197/47
f 22/198/48 24/200/50 23/199/49
f 24/200/50 26/202/52 25/201/51
f 26/202/52 28/204/54 27/203/53
f 28/204/54 30/206/56 29/205/55
f 30/206/56 32/208/58 31/207/57
f 32/208/58 34/210/60 33/209/59
f 34/210/60 36/212/62 35/211/61
f 36/212/62 38/217/64 37/213/63
f 6/224/32 4/225/30 2/226/27
f 2/226/27 40/227/66 38/228/64
f 38/228/64 36/229/62 34/230/60
f 34/230/60 32/231/58 30/214/56
f 30/214/56 28/232/54 22/215/48
f 28/232/54 26/233/52 22/215/48
f 26/233/52 24/234/50 22/215/48
f 22/215/48 20/235/46 18/236/44
f 18/236/44 16/237/42 22/215/48
f 16/237/42 14/216/40 22/215/48
f 14/216/40 12/238/38 10/239/36
f 10/239/36 8/240/34 6/224/32
f 6/224/32 2/226/27 38/228/64
f 38/228/64 34/230/60 30/214/56
f 14/216/40 10/239/36 6/224/32
f 6/224/32 38/228/64 14/216/40
f 38/228/64 30/214/56 14/216/40
f 38/217/64 40/219/66 39/218/65
f 40/219/66 2/241/27 1/220/29
f 39/223/65 1/242/29 3/243/28
f 3/243/28 5/244/31 7/245/33
f 7/245/33 9/246/35 11/247/37
f 11/247/37 13/248/39 15/249/41
f 15/249/41 17/250/43 19/251/45
f 19/251/45 21/252/47 23/221/49
f 23/221/49 25/253/51 31/222/57
f 25/253/51 27/254/53 31/222/57
f 27/254/53 29/255/55 31/222/57
f 31/222/57 33/256/59 35/257/61
f 35/257/61 37/258/63 31/222/57
f 37/258/63 39/223/65 31/222/57
f 39/223/65 3/243/28 15/249/41
f 3/243/28 7/245/33 15/249/41
f 7/245/33 11/247/37 15/249/41
f 15/249/41 19/251/45 23/221/49
f 15/249/41 23/221/49 39/223/65
