# Blender v3.5.1 OBJ File: 'RoomTemplate.blend'
# www.blender.org
mtllib Plane.mtl
o RoomBox_Plane
v -4.000000 -4.000000 0.000000
v 4.000000 -4.000000 0.000000
v -4.000000 4.000000 0.000000
v 4.000000 4.000000 0.000000
v -4.000000 -4.000000 0.000000
v 4.000000 -4.000000 0.000000
v -4.000000 -12.000000 0.000000
v 4.000000 -12.000000 0.000000
v -12.000000 -4.000000 0.000000
v -12.000000 4.000000 0.000000
v -4.000000 -12.000000 0.000000
v -12.000000 -12.000000 0.000000
v 4.000000 -4.000000 3.000000
v -4.000000 4.000000 3.000000
v 4.000000 4.000000 3.000000
v 4.000000 -4.000000 3.000000
v -4.000000 -12.000000 3.000000
v 4.000000 -12.000000 3.000000
v -12.000000 -4.000000 3.000000
v -12.000000 4.000000 3.000000
v -4.000000 -12.000000 3.000000
v -12.000000 -12.000000 3.000000
v 4.000000 -4.000000 6.000000
v -4.000000 4.000000 6.000000
v 4.000000 4.000000 6.000000
v 4.000000 -4.000000 6.000000
v -4.000000 -12.000000 6.000000
v 4.000000 -12.000000 6.000000
v -12.000000 -4.000000 6.000000
v -12.000000 4.000000 6.000000
v -4.000000 -12.000000 6.000000
v -12.000000 -12.000000 6.000000
v -4.000000 -4.000000 6.000000
v -4.000000 4.000000 6.000000
v -12.000000 -4.000000 6.000000
v -12.000000 4.000000 6.000000
v -4.000000 -12.000000 6.000000
v -12.000000 -12.000000 6.000000
v 4.000000 -12.000000 6.000000
v -4.000000 -12.000000 6.000000
v 4.058233 -3.994822 3.037840
v 4.000000 -6.000000 0.000000
v -4.000000 -6.000000 0.000000
v 4.000000 -6.000000 3.000000
v 4.000000 -6.000000 6.000000
v -4.000000 -2.000000 0.000000
v 4.000000 -2.000000 0.000000
v -12.000000 -2.000000 0.000000
v 4.000000 -2.000000 3.000000
v -12.000000 -2.000000 3.000000
v 4.000000 -2.000000 6.000000
v -12.000000 -2.000000 6.000000
v -4.000000 -2.000000 6.000000
v -12.000000 -2.000000 6.000000
v -2.000000 -4.000000 0.000000
v -2.000000 4.000000 0.000000
v -2.000000 -4.000000 0.000000
v -2.000000 -12.000000 0.000000
v -2.000000 4.000000 3.000000
v -2.000000 -12.000000 3.000000
v -2.000000 4.000000 6.000000
v -2.000000 -12.000000 6.000000
v -2.000000 -6.000000 0.000000
v -2.000000 -2.000000 0.000000
v -6.000000 -4.000000 0.000000
v -6.000000 4.000000 0.000000
v -6.000000 -12.000000 0.000000
v -6.000000 4.000000 3.000000
v -6.000000 -12.000000 3.000000
v -6.000000 4.000000 6.000000
v -6.000000 -12.000000 6.000000
v -6.000000 -2.000000 0.000000
v -4.000000 -6.000000 0.000000
v -12.000000 -6.000000 0.000000
v -12.000000 -6.000000 3.000000
v -12.000000 -6.000000 6.000000
v -6.000000 -6.000000 0.000000
vt 1.000000 0.250000
vt 0.250000 1.000000
vt 0.250000 0.250000
vt 0.250000 0.000000
vt 0.000000 0.000000
vt 0.250000 0.000000
vt 0.000000 0.000000
vt 0.250000 0.000000
vt 0.250000 0.000000
vt 0.000000 1.000000
vt 0.000000 0.250000
vt 0.000000 0.250000
vt 0.000000 0.000000
vt 0.000000 0.000000
vt 0.000000 0.000000
vt 0.000000 0.000000
vt 0.000000 0.000000
vt 1.000000 1.000000
vt 0.250000 1.000000
vt 0.000000 0.000000
vt 0.000000 0.000000
vt 0.000000 1.000000
vt 0.000000 0.250000
vt 1.000000 0.000000
vt 1.000000 0.000000
vt 1.000000 0.000000
vt 0.000000 0.000000
vt 0.000000 0.000000
vt 0.000000 1.000000
vt 0.000000 0.250000
vt 0.000000 0.000000
vt 0.250000 0.000000
vt 0.250000 0.000000
vt 1.000000 0.000000
vt 1.000000 0.250000
vt 1.000000 0.250000
vt 0.000000 0.000000
vt 0.000000 0.000000
vt 0.000000 0.000000
vt 0.000000 1.000000
vt 0.000000 1.000000
vt 0.000000 1.000000
vt 1.000000 0.000000
vt 1.000000 0.000000
vt 1.000000 1.000000
vt 0.250000 1.000000
vt 0.000000 0.000000
vt 0.000000 0.000000
vt 1.000000 0.000000
vt 1.000000 0.250000
vt 1.000000 0.000000
vt 1.000000 0.250000
vt 1.000000 0.000000
vt 1.000000 0.000000
vt 1.000000 0.000000
vt 1.000000 0.000000
vt 1.000000 0.000000
vt 1.000000 1.000000
vt 1.000000 1.000000
vt 1.000000 1.000000
vt 0.000000 0.000000
vt 1.000000 0.000000
vt 0.000000 0.250000
vt 1.000000 0.000000
vt 0.000000 1.000000
vt 1.000000 0.000000
vt 0.000000 0.000000
vt 0.000000 1.000000
vt 0.000000 0.000000
vt 0.000000 0.000000
vt 0.000000 1.000000
vt 0.000000 0.000000
vt 0.000000 0.000000
vt 0.000000 0.000000
vt 1.000000 0.000000
vt 1.000000 0.000000
vn 0.0000 0.0000 1.0000
vn 0.0000 -1.0000 0.0000
vn 1.0000 0.0000 0.0000
vn -1.0000 0.0000 0.0000
vn 0.0000 1.0000 0.0000
vn 0.0000 0.0000 -1.0000
usemtl None
s off
f 47/1/1 56/2/1 64/3/1
f 55/4/1 5/5/1 57/6/1
f 43/7/1 58/8/1 63/9/1
f 66/10/1 48/11/1 72/12/1
f 74/13/1 67/14/1 77/15/1
f 9/16/1 77/15/1 65/17/1
f 4/18/2 59/19/2 56/2/2
f 65/17/1 73/20/1 1/21/1
f 10/22/3 50/23/3 48/11/3
f 8/24/4 44/25/4 42/26/4
f 12/27/5 69/28/5 67/14/5
f 20/29/3 52/30/3 50/23/3
f 17/31/5 62/32/5 60/33/5
f 13/34/4 51/35/4 49/36/4
f 19/37/3 76/38/3 75/39/3
f 14/40/2 70/41/2 68/42/2
f 18/43/4 45/44/4 44/25/4
f 15/45/2 61/46/2 59/19/2
f 22/47/5 71/48/5 69/28/5
f 23/49/6 53/50/6 51/35/6
f 33/51/6 54/52/6 53/50/6
f 33/51/6 38/53/6 35/54/6
f 23/49/6 40/55/6 33/51/6
f 44/25/4 26/56/4 16/57/4
f 5/5/1 63/9/1 57/6/1
f 53/50/6 36/58/6 34/59/6
f 51/35/6 34/59/6 25/60/6
f 49/36/4 25/60/4 15/45/4
f 50/23/3 29/61/3 19/37/3
f 47/1/4 15/45/4 4/18/4
f 72/12/1 9/16/1 65/17/1
f 2/62/1 64/3/1 55/4/1
f 55/4/1 46/63/1 1/21/1
f 57/6/1 42/26/1 6/64/1
f 59/19/2 24/65/2 14/40/2
f 60/33/5 28/66/5 18/43/5
f 75/39/3 32/67/3 22/47/3
f 58/8/5 18/43/5 8/24/5
f 63/9/1 8/24/1 42/26/1
f 2/62/1 57/6/1 6/64/1
f 64/3/1 3/68/1 46/63/1
f 46/63/1 65/17/1 1/21/1
f 69/28/5 31/69/5 21/70/5
f 68/42/2 30/71/2 20/29/2
f 74/13/3 22/47/3 12/27/3
f 66/10/2 20/29/2 10/22/2
f 77/15/1 11/72/1 73/20/1
f 3/68/1 72/12/1 46/63/1
f 47/1/1 4/18/1 56/2/1
f 55/4/1 1/21/1 5/5/1
f 43/7/1 7/73/1 58/8/1
f 66/10/1 10/22/1 48/11/1
f 74/13/1 12/27/1 67/14/1
f 9/16/1 74/13/1 77/15/1
f 4/18/2 15/45/2 59/19/2
f 65/17/1 77/15/1 73/20/1
f 10/22/3 20/29/3 50/23/3
f 8/24/4 18/43/4 44/25/4
f 12/27/5 22/47/5 69/28/5
f 20/29/3 30/71/3 52/30/3
f 17/31/5 27/74/5 62/32/5
f 13/34/4 23/49/4 51/35/4
f 19/37/3 29/61/3 76/38/3
f 14/40/2 24/65/2 70/41/2
f 18/43/4 28/66/4 45/44/4
f 15/45/2 25/60/2 61/46/2
f 22/47/5 32/67/5 71/48/5
f 23/49/6 33/51/6 53/50/6
f 33/51/6 35/54/6 54/52/6
f 33/51/6 37/75/6 38/53/6
f 23/49/6 39/76/6 40/55/6
f 44/25/4 45/44/4 26/56/4
f 5/5/1 43/7/1 63/9/1
f 53/50/6 54/52/6 36/58/6
f 51/35/6 53/50/6 34/59/6
f 49/36/4 51/35/4 25/60/4
f 50/23/3 52/30/3 29/61/3
f 47/1/4 49/36/4 15/45/4
f 72/12/1 48/11/1 9/16/1
f 2/62/1 47/1/1 64/3/1
f 55/4/1 64/3/1 46/63/1
f 57/6/1 63/9/1 42/26/1
f 59/19/2 61/46/2 24/65/2
f 60/33/5 62/32/5 28/66/5
f 75/39/3 76/38/3 32/67/3
f 58/8/5 60/33/5 18/43/5
f 63/9/1 58/8/1 8/24/1
f 2/62/1 55/4/1 57/6/1
f 64/3/1 56/2/1 3/68/1
f 46/63/1 72/12/1 65/17/1
f 69/28/5 71/48/5 31/69/5
f 68/42/2 70/41/2 30/71/2
f 74/13/3 75/39/3 22/47/3
f 66/10/2 68/42/2 20/29/2
f 77/15/1 67/14/1 11/72/1
f 3/68/1 66/10/1 72/12/1
