# Blender 3.5.1
# www.blender.org
mtllib X_wall.mtl
o Plane
v -6.000000 0.000000 2.000000
v 6.000000 0.000000 2.000000
v -6.000000 0.000000 -2.000000
v 6.000000 0.000000 -2.000000
v -5.000000 0.000000 2.000000
v -4.000000 0.000000 2.000000
v -3.000000 0.000000 2.000000
v -2.000000 0.000000 2.000000
v -1.000000 0.000000 2.000000
v 1.000000 0.000000 2.000000
v 2.000000 0.000000 2.000000
v 3.000000 0.000000 2.000000
v 4.000000 0.000000 2.000000
v 5.000000 0.000000 2.000000
v 5.000000 0.000000 -2.000000
v 4.000000 0.000000 -2.000000
v 3.000000 0.000000 -2.000000
v 2.000000 0.000000 -2.000000
v 1.000000 0.000000 -2.000000
v -0.000000 0.000000 -2.000000
v -1.000000 0.000000 -2.000000
v -2.000000 0.000000 -2.000000
v -3.000000 0.000000 -2.000000
v -4.000000 0.000000 -2.000000
v -5.000000 0.000000 -2.000000
v -6.000000 0.000000 0.000000
v 6.000000 0.000000 0.000000
v -5.000000 0.000000 0.000000
v -4.000000 0.000000 0.000000
v -3.000000 0.000000 0.000000
v -2.000000 0.000000 0.000000
v -1.000000 0.000000 0.000000
v 0.000000 0.000000 0.000000
v 1.000000 0.000000 0.000000
v 2.000000 0.000000 0.000000
v 3.000000 0.000000 0.000000
v 4.000000 0.000000 0.000000
v 5.000000 0.000000 0.000000
vn -0.0000 1.0000 -0.0000
vt 0.000000 0.000000
vt 1.000000 0.000000
vt 0.000000 1.000000
vt 1.000000 1.000000
vt 0.083333 0.000000
vt 0.166667 0.000000
vt 0.250000 0.000000
vt 0.333333 0.000000
vt 0.416667 0.000000
vt 0.583333 0.000000
vt 0.666667 0.000000
vt 0.750000 0.000000
vt 0.833333 0.000000
vt 0.916667 0.000000
vt 0.916667 1.000000
vt 0.833333 1.000000
vt 0.750000 1.000000
vt 0.666667 1.000000
vt 0.583333 1.000000
vt 0.500000 1.000000
vt 0.416667 1.000000
vt 0.333333 1.000000
vt 0.250000 1.000000
vt 0.166667 1.000000
vt 0.083333 1.000000
vt 0.000000 0.500000
vt 1.000000 0.500000
vt 0.083333 0.500000
vt 0.166667 0.500000
vt 0.250000 0.500000
vt 0.333333 0.500000
vt 0.416667 0.500000
vt 0.500000 0.500000
vt 0.583333 0.500000
vt 0.666667 0.500000
vt 0.750000 0.500000
vt 0.833333 0.500000
vt 0.916667 0.500000
s 0
f 38/38/1 27/27/1 4/4/1 15/15/1
f 26/26/1 28/28/1 25/25/1 3/3/1
f 28/28/1 29/29/1 24/24/1 25/25/1
f 29/29/1 30/30/1 23/23/1 24/24/1
f 30/30/1 31/31/1 22/22/1 23/23/1
f 31/31/1 32/32/1 21/21/1 22/22/1
f 32/32/1 33/33/1 20/20/1 21/21/1
f 33/33/1 34/34/1 19/19/1 20/20/1
f 34/34/1 35/35/1 18/18/1 19/19/1
f 35/35/1 36/36/1 17/17/1 18/18/1
f 36/36/1 37/37/1 16/16/1 17/17/1
f 37/37/1 38/38/1 15/15/1 16/16/1
f 13/13/1 14/14/1 38/38/1 37/37/1
f 12/12/1 13/13/1 37/37/1 36/36/1
f 11/11/1 12/12/1 36/36/1 35/35/1
f 10/10/1 11/11/1 35/35/1 34/34/1
f 8/8/1 9/9/1 32/32/1 31/31/1
f 7/7/1 8/8/1 31/31/1 30/30/1
f 6/6/1 7/7/1 30/30/1 29/29/1
f 5/5/1 6/6/1 29/29/1 28/28/1
f 1/1/1 5/5/1 28/28/1 26/26/1
f 14/14/1 2/2/1 27/27/1 38/38/1
